<svg width="41" height="40" viewBox="0 0 41 40" fill="none" xmlns="http://www.w3.org/2000/svg">
<g clip-path="url(#clip0)">
<path d="M20.3965 0C14.9632 0 14.2848 0.025 12.1515 0.12C10.0215 0.22 8.57148 0.555 7.29648 1.05C5.98148 1.56 4.86482 2.245 3.75315 3.35667C2.64148 4.46833 1.95482 5.58333 1.44648 6.9C0.951484 8.175 0.614818 9.625 0.516484 11.755C0.416484 13.8883 0.396484 14.5667 0.396484 20C0.396484 25.4333 0.421484 26.1117 0.516484 28.245C0.616484 30.3733 0.951484 31.825 1.44648 33.1C1.95648 34.4133 2.64148 35.5317 3.75315 36.6433C4.86482 37.7533 5.97982 38.4417 7.29648 38.95C8.57315 39.4433 10.0232 39.7817 12.1515 39.88C14.2848 39.98 14.9632 40 20.3965 40C25.8298 40 26.5082 39.975 28.6415 39.88C30.7698 39.78 32.2215 39.4433 33.4965 38.95C34.8098 38.44 35.9282 37.7533 37.0398 36.6433C38.1498 35.5317 38.8382 34.4183 39.3465 33.1C39.8398 31.825 40.1781 30.3733 40.2765 28.245C40.3765 26.1117 40.3965 25.4333 40.3965 20C40.3965 14.5667 40.3715 13.8883 40.2765 11.755C40.1765 9.62667 39.8398 8.17333 39.3465 6.9C38.8365 5.585 38.1498 4.46833 37.0398 3.35667C35.9282 2.245 34.8148 1.55833 33.4965 1.05C32.2215 0.555 30.7698 0.218333 28.6415 0.12C26.5082 0.02 25.8298 0 20.3965 0ZM20.3965 3.6C25.7348 3.6 26.3715 3.62667 28.4798 3.71833C30.4298 3.81 31.4881 4.13333 32.1915 4.41C33.1281 4.77167 33.7915 5.205 34.4948 5.90333C35.1931 6.60333 35.6265 7.26833 35.9881 8.205C36.2615 8.90833 36.5881 9.96667 36.6765 11.9167C36.7715 14.0267 36.7931 14.66 36.7931 20C36.7931 25.34 36.7682 25.975 36.6698 28.0833C36.5682 30.0333 36.2432 31.0917 35.9682 31.795C35.5948 32.7317 35.1698 33.395 34.4698 34.0983C33.7715 34.7967 33.0965 35.23 32.1698 35.5917C31.4698 35.865 30.3948 36.1917 28.4448 36.28C26.3215 36.375 25.6965 36.3967 20.3465 36.3967C14.9948 36.3967 14.3698 36.3717 12.2482 36.2733C10.2965 36.1717 9.22148 35.8467 8.52148 35.5717C7.57315 35.1983 6.92148 34.7733 6.22315 34.0733C5.52148 33.375 5.07315 32.7 4.72315 31.7733C4.44815 31.0733 4.12482 29.9983 4.02315 28.0483C3.94815 25.9483 3.92148 25.3 3.92148 19.975C3.92148 14.6483 3.94815 13.9983 4.02315 11.8733C4.12482 9.92333 4.44815 8.85 4.72315 8.15C5.07315 7.2 5.52148 6.55 6.22315 5.84833C6.92148 5.15 7.57315 4.7 8.52148 4.35167C9.22148 4.075 10.2732 3.75 12.2232 3.65C14.3482 3.575 14.9732 3.55 20.3215 3.55L20.3965 3.6V3.6ZM20.3965 9.73C14.7215 9.73 10.1265 14.33 10.1265 20C10.1265 25.675 14.7265 30.27 20.3965 30.27C26.0715 30.27 30.6665 25.67 30.6665 20C30.6665 14.325 26.0665 9.73 20.3965 9.73ZM20.3965 26.6667C16.7132 26.6667 13.7298 23.6833 13.7298 20C13.7298 16.3167 16.7132 13.3333 20.3965 13.3333C24.0798 13.3333 27.0632 16.3167 27.0632 20C27.0632 23.6833 24.0798 26.6667 20.3965 26.6667ZM33.4732 9.325C33.4732 10.65 32.3965 11.725 31.0732 11.725C29.7482 11.725 28.6731 10.6483 28.6731 9.325C28.6731 8.00167 29.7498 6.92667 31.0732 6.92667C32.3948 6.925 33.4732 8.00167 33.4732 9.325Z" fill="#FAFAFA"/>
</g>
<defs>
<clipPath id="clip0">
<rect width="40" height="40" fill="white" transform="translate(0.396484)"/>
</clipPath>
</defs>
</svg>
