<svg width="40" height="40" viewBox="0 0 40 40" fill="none" xmlns="http://www.w3.org/2000/svg">
<path d="M34.5202 22.5868V33.4553C34.5202 33.6891 34.2951 33.9228 34.07 33.9228H28.6672C28.4421 33.9228 28.217 33.6891 28.217 33.4553V23.4048C28.217 20.7169 27.3166 18.9639 25.0654 18.9639C23.3771 18.9639 22.2515 20.1325 21.8013 21.3012C21.6887 21.7687 21.5762 22.353 21.5762 22.9373V33.4553C21.5762 33.6891 21.3511 33.9228 21.1259 33.9228H15.7232C15.4981 33.9228 15.273 33.6891 15.273 33.4553C15.273 30.7674 15.3855 17.7952 15.273 14.7567C15.273 14.523 15.4981 14.2892 15.7232 14.2892H21.1259C21.3511 14.2892 21.5762 14.523 21.5762 14.7567V17.094C21.5762 17.094 21.5762 17.094 21.5762 17.2109V17.094C22.3641 15.8085 23.9399 13.8219 27.3166 13.8219C31.3686 13.705 34.5202 16.5098 34.5202 22.5868ZM5.93072 33.9228H11.3335C11.5586 33.9228 11.7837 33.6891 11.7837 33.4553V14.7567C11.7837 14.523 11.5586 14.2892 11.3335 14.2892H5.93072C5.70561 14.2892 5.48047 14.523 5.48047 14.7567V33.4553C5.48047 33.6891 5.59305 33.9228 5.93072 33.9228Z" fill="white"/>
<path d="M8.83121 12.7015C10.6818 12.7015 12.182 11.2013 12.182 9.35074C12.182 7.50018 10.6818 6 8.83121 6C6.98065 6 5.48047 7.50018 5.48047 9.35074C5.48047 11.2013 6.98065 12.7015 8.83121 12.7015Z" fill="white"/>
</svg>
