<svg width="40" height="40" viewBox="0 0 40 40" fill="none" xmlns="http://www.w3.org/2000/svg">
<path fill-rule="evenodd" clip-rule="evenodd" d="M27.553 1.73298H27.5556C28.0367 4.30976 29.5584 6.5757 31.7635 7.99931C33.3112 9.02588 35.1292 9.57346 36.9875 9.57282V11.0632C36.9917 11.0641 36.9958 11.0649 37 11.0658V16.3989C33.5597 16.4067 30.2041 15.3338 27.4086 13.3324V27.345C27.3939 34.3371 21.7105 39.9976 14.7047 39.9976C12.1152 40.048 9.57336 39.2989 7.42671 37.8527C7.43045 37.8567 7.43418 37.8607 7.43792 37.8647C2.88634 34.704 0.920954 28.7979 2.58599 23.5192C4.25103 18.2404 9.1601 14.6542 14.7049 14.6659C15.2777 14.6741 15.8491 14.7231 16.4148 14.8126V19.1057C16.4103 19.1058 16.4058 19.1059 16.4012 19.106V21.8519C15.8474 21.6803 15.2713 21.5904 14.6913 21.5853C12.0309 21.5989 9.72126 23.418 9.08939 25.9973C8.45753 28.5766 9.66567 31.2541 12.0196 32.4913L12.0204 32.4924C12.8452 32.9221 13.7876 33.1237 14.7179 33.1316C17.833 33.1265 20.3873 30.6655 20.5022 27.5585V0H27.4085C27.4032 0.580875 27.4516 1.16099 27.553 1.73298Z" fill="white"/>
</svg>
