<svg width="41" height="40" viewBox="0 0 41 40" fill="none" xmlns="http://www.w3.org/2000/svg">
<g clip-path="url(#clip0)">
<path d="M40.1216 7.61483C38.6466 8.26316 37.0716 8.70483 35.4132 8.9065C37.1032 7.88816 38.4032 6.28316 39.0182 4.36816C37.4332 5.29316 35.6766 5.9665 33.8066 6.3415C32.3132 4.74316 30.1849 3.74316 27.8216 3.74316C23.2932 3.74316 19.6216 7.41483 19.6216 11.9382C19.6216 12.5882 19.6966 13.2132 19.8332 13.8115C13.0166 13.4898 6.97491 10.2165 2.93158 5.26816C2.21991 6.4715 1.82158 7.86983 1.82158 9.39316C1.82158 12.2432 3.27158 14.7482 5.46824 16.2198C4.12324 16.1765 2.85824 15.8065 1.75491 15.1932V15.2948C1.75491 19.2698 4.57658 22.5848 8.33157 23.3398C7.64324 23.5248 6.91658 23.6248 6.17158 23.6248C5.64824 23.6248 5.14658 23.5748 4.64491 23.4815C5.69657 26.7365 8.71991 29.1098 12.3182 29.1765C9.51824 31.3748 5.96991 32.6848 2.14824 32.6848C1.49824 32.6848 0.849909 32.6465 0.198242 32.5732C3.84657 34.8965 8.14491 36.2548 12.7932 36.2548C27.8832 36.2548 36.1249 23.7615 36.1249 12.9448C36.1249 12.5965 36.1249 12.2448 36.0999 11.8948C37.7016 10.7465 39.0999 9.29483 40.1999 7.64816L40.1216 7.61483Z" fill="#FAFAFA"/>
</g>
<defs>
<clipPath id="clip0">
<rect width="40" height="40" fill="white" transform="translate(0.198242)"/>
</clipPath>
</defs>
</svg>
