<svg width="40" height="40" viewBox="0 0 40 40" fill="none" xmlns="http://www.w3.org/2000/svg">
<path fill-rule="evenodd" clip-rule="evenodd" d="M34.0854 8.76467C35.6274 9.17656 36.8433 10.3823 37.2583 11.9119C38.0295 14.7057 37.9999 20.5294 37.9999 20.5294C37.9999 20.5294 37.9999 26.3234 37.2586 29.1176C36.8433 30.6469 35.6276 31.8529 34.0854 32.2645C31.2683 33 19.9999 33 19.9999 33C19.9999 33 8.76096 33 5.91441 32.2353C4.37221 31.8234 3.15658 30.6175 2.7413 29.0881C2 26.3234 2 20.5 2 20.5C2 20.5 2 14.7057 2.7413 11.9119C3.15631 10.3825 4.40188 9.14714 5.91414 8.73552C8.7313 8 19.9997 8 19.9997 8C19.9997 8 31.2683 8 34.0854 8.76467ZM26 20.5L17 26V15L26 20.5Z" fill="white"/>
</svg>
